<svg width="97" height="96" viewBox="0 0 97 96" fill="none" xmlns="http://www.w3.org/2000/svg">
<g clip-path="url(#clip0_2619_1443)">
<mask id="mask0_2619_1443" style="mask-type:luminance" maskUnits="userSpaceOnUse" x="0" y="0" width="97" height="96">
<path d="M96.5 0H0.5V96H96.5V0Z" fill="white"/>
</mask>
<g mask="url(#mask0_2619_1443)">
<mask id="mask1_2619_1443" style="mask-type:luminance" maskUnits="userSpaceOnUse" x="0" y="0" width="97" height="96">
<path d="M0.5 0H96.5V96H0.5V0Z" fill="white"/>
</mask>
<g mask="url(#mask1_2619_1443)">
<path d="M23.0188 84.5416C21.658 71.2965 19.29 53.1905 52.2259 53.1905C66.6835 53.1905 80.5477 59.0386 74.6425 83.8167C75.4978 96.0672 23.5413 95.9919 23.0188 84.5416Z" fill="#FFD527"/>
<path d="M23.0188 84.5416C21.658 71.2965 19.29 53.1905 52.2259 53.1905C66.6835 53.1905 80.5477 59.0386 74.6425 83.8167C75.4978 96.0672 23.5413 95.9919 23.0188 84.5416Z" stroke="#FA9016" stroke-width="1.9125" stroke-linecap="round" stroke-linejoin="round"/>
<path d="M71.7001 71.8319C73.1677 73.9012 69.6873 77.4248 72.5195 81.446C75.3517 85.4672 79.7792 83.9284 80.469 82.537C81.1589 81.1456 76.8997 80.5085 78.1659 74.3295C79.0752 69.8382 78.9019 63.4811 73.6119 63.1142" fill="#FFD527"/>
<path d="M71.7001 71.8319C73.1677 73.9012 69.6873 77.4248 72.5195 81.446C75.3517 85.4672 79.7792 83.9284 80.469 82.537C81.1589 81.1456 76.8997 80.5085 78.1659 74.3295C79.0752 69.8382 78.9019 63.4811 73.6119 63.1142" stroke="#FA9016" stroke-width="1.9125" stroke-linecap="round" stroke-linejoin="round"/>
<path d="M73.6292 75.7175C72.9686 77.0231 72.8485 80.1699 75.3746 81.1308" stroke="#FCEE21" stroke-width="1.53" stroke-linecap="round" stroke-linejoin="round"/>
<path d="M71.0261 66.0954C75.9633 62.025 78.8301 55.2572 78.8301 48.5834C78.8301 44.4083 77.7152 40.2521 75.737 36.4661C72.764 33.3299 27.2064 31.1553 24.669 36.133C22.5803 40.0077 21.3989 44.2854 21.3989 48.5834C21.3989 55.2753 24.2804 62.0569 29.1557 66.0954" fill="#FFD527"/>
<path d="M71.0261 66.0954C75.9633 62.025 78.8301 55.2572 78.8301 48.5834C78.8301 44.4083 77.7152 40.2521 75.737 36.4661C72.764 33.3299 27.2064 31.1553 24.669 36.133C22.5803 40.0077 21.3989 44.2854 21.3989 48.5834C21.3989 55.2753 24.2804 62.0569 29.1557 66.0954" stroke="#FA9016" stroke-width="2.00813" stroke-linecap="round" stroke-linejoin="round"/>
<g opacity="0.66">
<path d="M24.6688 36.133C23.5749 38.1624 22.7297 40.3023 22.1729 42.4978C40.6697 45.4658 64.1378 44.1237 78.3807 43.9528C77.8816 41.3692 76.9796 38.8446 75.7368 36.4661C72.7637 33.3299 27.2062 31.1553 24.6688 36.133Z" fill="#FA9016"/>
</g>
<path d="M74.3307 45.2852C74.5321 46.404 74.637 47.5347 74.637 48.6675C74.637 51.8767 73.7968 54.7612 72.2959 57.2531" stroke="#FCEE21" stroke-width="1.6065" stroke-linecap="round" stroke-linejoin="round"/>
<path d="M25.3844 46.2238C24.9464 49.4268 25.0796 52.6177 27.1058 54.6439" stroke="white" stroke-width="1.6065" stroke-linecap="round" stroke-linejoin="round"/>
<path d="M59.7074 46.4017C60.644 49.1121 63.5094 50.7758 66.1075 50.1176C68.7056 49.4593 70.0524 46.7285 69.1158 44.0181C68.1793 41.3077 65.3139 39.644 62.7157 40.3023C60.1176 40.9605 58.7708 43.6914 59.7074 46.4017Z" fill="black"/>
<path d="M63.5392 43.0148C63.5285 43.7781 64.2432 44.4041 65.136 44.4125C66.0289 44.4209 66.7612 43.8091 66.7719 43.0458C66.7825 42.2825 66.0678 41.6565 65.175 41.6481C64.2822 41.6397 63.5498 42.2516 63.5392 43.0148Z" fill="white"/>
<path d="M59.6558 37.6178C62.3131 36.8652 67.1826 36.7425 70.3581 38.0435" stroke="black" stroke-width="4.01625" stroke-linejoin="round"/>
<path d="M40.8537 46.4017C39.9171 49.1121 37.0517 50.7758 34.4536 50.1176C31.8555 49.4593 30.5086 46.7285 31.4452 44.0181C32.3818 41.3077 35.2472 39.644 37.8453 40.3023C40.4434 40.9605 41.7903 43.6914 40.8537 46.4017Z" fill="black"/>
<path d="M39.1293 43.0148C39.1399 43.7781 38.4252 44.4041 37.5324 44.4125C36.6396 44.4209 35.9072 43.8091 35.8966 43.0458C35.886 42.2825 36.6006 41.6565 37.4935 41.6481C38.3863 41.6397 39.1186 42.2516 39.1293 43.0148Z" fill="white"/>
<path d="M40.9053 37.6178C38.2479 36.8652 33.3784 36.7425 30.203 38.0435" stroke="black" stroke-width="4.01625" stroke-linejoin="round"/>
<path d="M59.9023 51.9028C52.7742 51.2164 52.1174 45.14 49.852 45.1238C47.0404 45.1035 46.4542 51.1941 42.102 51.893C36.8259 52.74 37.4872 54.4142 37.5418 55.0503C37.6372 56.1612 39.029 57.3625 40.4594 57.9473C42.7378 58.8786 46.4456 59.223 50.1649 59.1027C53.3744 58.9989 56.5927 58.5489 58.9078 57.8314C60.6814 57.2818 61.909 56.0028 62.1283 55.0072C62.3475 54.0115 61.7391 52.0687 59.9023 51.9028Z" fill="#FF5D1F"/>
<path d="M59.9023 51.9028C52.7742 51.2164 52.1174 45.14 49.852 45.1238C47.0404 45.1035 46.4542 51.1941 42.102 51.893C36.8259 52.74 37.4872 54.4142 37.5418 55.0503C37.6372 56.1612 39.029 57.3625 40.4594 57.9473C42.7378 58.8786 46.4456 59.223 50.1649 59.1027C53.3744 58.9989 56.5927 58.5489 58.9078 57.8314C60.6814 57.2818 61.909 56.0028 62.1283 55.0072C62.3475 54.0115 61.7391 52.0687 59.9023 51.9028Z" stroke="#CF3502" stroke-width="1.6065" stroke-linecap="round" stroke-linejoin="round"/>
<g opacity="0.33">
<path d="M48.1835 49.0644C47.4192 50.4385 46.1925 51.7797 45.4777 52.2071" stroke="white" stroke-width="1.683" stroke-linecap="round" stroke-linejoin="round"/>
</g>
<path d="M59.321 54.1593C59.3698 54.1122 54.4726 55.7759 49.6362 55.7168C41.6951 55.6199 40.4183 54.2475 40.2334 54.4782C40.0085 54.759 42.2533 56.4813 49.7465 55.9936C57.2396 55.5058 58.766 54.7795 59.321 54.1593Z" fill="url(#paint0_radial_2619_1443)"/>
<path d="M59.321 54.1593C59.3698 54.1122 54.4726 55.7759 49.6362 55.7168C41.6951 55.6199 40.4183 54.2475 40.2334 54.4782C40.0085 54.759 42.2533 56.4813 49.7465 55.9936C57.2396 55.5058 58.766 54.7795 59.321 54.1593Z" stroke="#7D0909" stroke-width="1.6065" stroke-linecap="round" stroke-linejoin="round"/>
<path d="M87.0336 34.9064C87.0336 36.0232 69.9451 36.9286 48.8652 36.9286C27.7853 36.9286 10.6968 36.0232 10.6968 34.9064C10.6968 34.507 12.8816 34.1347 16.6527 33.8213C23.4279 33.258 35.323 32.8843 48.8652 32.8843C64.1595 32.8843 77.3527 33.3608 83.4427 34.049C85.7464 34.3092 87.0336 34.6 87.0336 34.9064Z" fill="#4E4B1E"/>
<path d="M87.0336 34.9064C87.0336 36.0232 69.9451 36.9286 48.8652 36.9286C27.7853 36.9286 10.6968 36.0232 10.6968 34.9064C10.6968 34.507 12.8816 34.1347 16.6527 33.8213C23.4279 33.258 35.323 32.8843 48.8652 32.8843C64.1595 32.8843 77.3527 33.3608 83.4427 34.049C85.7464 34.3092 87.0336 34.6 87.0336 34.9064Z" stroke="#2D2B1D" stroke-width="2.00813" stroke-linecap="round" stroke-linejoin="round"/>
<path d="M24.8468 34.4249C26.2927 31.38 27.852 14.6348 34.3525 12.007C44.5839 7.87086 43.931 3.08168 50.4299 3.08168C57.0846 3.08168 59.0241 9.32213 66.2079 11.7893C73.2237 14.1989 74.6728 32.3555 76.0042 34.4249C77.2888 36.4218 23.8494 36.5252 24.8468 34.4249Z" fill="#4E4B1E"/>
<path d="M24.8468 34.4249C26.2927 31.38 27.852 14.6348 34.3525 12.007C44.5839 7.87086 43.931 3.08168 50.4299 3.08168C57.0846 3.08168 59.0241 9.32213 66.2079 11.7893C73.2237 14.1989 74.6728 32.3555 76.0042 34.4249C77.2888 36.4218 23.8494 36.5252 24.8468 34.4249Z" stroke="#2D2B1D" stroke-width="2.00813" stroke-linecap="round" stroke-linejoin="round"/>
<path d="M37.0454 16.1265C42.0711 16.9972 47.3911 14.5252 47.8989 9.15546L37.0454 16.1265Z" fill="#4E4B1E"/>
<path d="M37.0454 16.1265C42.0711 16.9972 47.3911 14.5252 47.8989 9.15546" stroke="#2D2B1D" stroke-width="2.00813" stroke-linecap="round" stroke-linejoin="round"/>
<path d="M53.9565 8.66888C54.6821 12.805 60.85 17.3169 63.7526 17.3468L53.9565 8.66888Z" fill="#4E4B1E"/>
<path d="M53.9565 8.66888C54.6821 12.805 60.85 17.3169 63.7526 17.3468" stroke="#2D2B1D" stroke-width="2.00813" stroke-linecap="round" stroke-linejoin="round"/>
<path d="M76.0042 34.4249C75.4297 33.5321 74.8328 30.4536 73.777 27.0488C69.8941 27.3434 29.7135 28.2206 27.2666 26.5004C26.1549 29.8701 25.4896 33.0714 24.8468 34.4249C23.8494 36.5252 77.2888 36.4218 76.0042 34.4249Z" fill="#6D5D31"/>
<path d="M76.0042 34.4249C75.4297 33.5321 74.8328 30.4536 73.777 27.0488C69.8941 27.3434 29.7135 28.2206 27.2666 26.5004C26.1549 29.8701 25.4896 33.0714 24.8468 34.4249C23.8494 36.5252 77.2888 36.4218 76.0042 34.4249Z" stroke="#2D2B1D" stroke-width="2.00813" stroke-linecap="round" stroke-linejoin="round"/>
<path d="M41.9845 67.3312C44.3033 69.4598 51.8341 82.133 35.4727 86.6323C33.126 87.2776 31.366 82.4671 34.8859 80.0617C38.4059 77.6564 36.8219 75.1338 34.8859 71.5551" fill="#FFD527"/>
<path d="M41.9845 67.3312C44.3032 69.4598 51.8341 82.133 35.4727 86.6323C33.126 87.2776 31.366 82.4671 34.8859 80.0617C38.4059 77.6564 36.8219 75.1338 34.8859 71.5551" stroke="#FA9016" stroke-width="1.9125" stroke-linecap="round" stroke-linejoin="round"/>
<path d="M28.4327 60.5261C23.1527 59.1181 21.1582 62.11 20.2782 65.102C15.9564 66.8307 14.9362 69.6208 16.0596 73.2146C12.3582 74.0194 14.3028 79.0422 14.75 79.9152C17.214 84.7259 23.4951 89.0851 27.9047 84.2859C30.9827 84.1258 32.5873 81.7434 32.5873 81.7434C35.8139 83.562 39.6968 79.9445 39.3447 77.1285C38.9926 74.3126 34.5927 67.742 34.5927 67.742" fill="#FFD527"/>
<path d="M28.4327 60.5261C23.1527 59.1181 21.1582 62.11 20.2782 65.102C15.9564 66.8307 14.9362 69.6208 16.0596 73.2146C12.3582 74.0194 14.3028 79.0422 14.75 79.9152C17.214 84.7259 23.4951 89.0851 27.9047 84.2859C30.9827 84.1258 32.5873 81.7434 32.5873 81.7434C35.8139 83.562 39.6968 79.9445 39.3447 77.1285C38.9926 74.3126 34.5927 67.742 34.5927 67.742" stroke="#FA9016" stroke-width="1.9125" stroke-linecap="round" stroke-linejoin="round"/>
<path d="M32.5873 81.7434C28.1142 78.1001 24.2676 70.0886 24.2676 70.0886L32.5873 81.7434Z" fill="#FFD527"/>
<path d="M32.5873 81.7434C28.1142 78.1001 24.2676 70.0886 24.2676 70.0886" stroke="#FA9016" stroke-width="1.9125" stroke-linecap="round" stroke-linejoin="round"/>
<path d="M27.9046 84.2859C23.2113 82.5258 19.0459 75.5446 19.0459 75.5446L27.9046 84.2859Z" fill="#FFD527"/>
<path d="M27.9046 84.2859C23.2113 82.5258 19.0459 75.5446 19.0459 75.5446" stroke="#FA9016" stroke-width="1.9125" stroke-linecap="round" stroke-linejoin="round"/>
<path d="M17.6261 72.2828C17.094 69.9178 17.567 68.6171 18.9268 67.9667" stroke="white" stroke-width="1.53" stroke-linecap="round" stroke-linejoin="round"/>
<path d="M22.2378 65.4835C22.6517 63.8871 23.6569 62.291 25.1941 62.0544" stroke="white" stroke-width="1.53" stroke-linecap="round" stroke-linejoin="round"/>
<path d="M38.9102 83.2206C41.1568 82.3929 44.9407 78.6088 43.1079 73.9381" stroke="#FCEE21" stroke-width="1.53" stroke-linecap="round" stroke-linejoin="round"/>
<path d="M34.1216 79.9688C35.8952 79.8506 37.7873 78.6679 35.9545 74.8249" stroke="#FCEE21" stroke-width="1.53" stroke-linecap="round" stroke-linejoin="round"/>
<path d="M28.0317 82.452C28.5638 82.3929 29.8054 81.5649 29.8054 81.5649" stroke="#FCEE21" stroke-width="1.53" stroke-linecap="round" stroke-linejoin="round"/>
<path d="M21.4102 84.2256C22.2379 84.5804 23.8342 84.5804 24.4254 84.2256" stroke="#FCEE21" stroke-width="1.53" stroke-linecap="round" stroke-linejoin="round"/>
<path d="M30.5446 62.7553C30.662 65.8647 33.2433 71.086 39.0512 70.0886C44.8591 69.0912 43.2751 63.1659 41.6325 59.7047C39.9899 56.2434 33.5365 54.3074 28.4326 60.5261" fill="#FFD527"/>
<path d="M30.5446 62.7553C30.662 65.8647 33.2433 71.086 39.0512 70.0886C44.8591 69.0912 43.2751 63.1659 41.6325 59.7047C39.9899 56.2434 33.5365 54.3074 28.4326 60.5261" stroke="#FA9016" stroke-width="1.9125" stroke-linecap="round" stroke-linejoin="round"/>
<path d="M33.2937 59.3348C32.5251 60.5764 31.6385 64.3012 34.5946 66.6662" stroke="white" stroke-width="1.53" stroke-linecap="round" stroke-linejoin="round"/>
<path d="M38.9106 67.6121C40.4479 67.1982 41.6895 66.3705 40.0931 61.818" stroke="#FCEE21" stroke-width="1.53" stroke-linecap="round" stroke-linejoin="round"/>
</g>
</g>
</g>
<defs>
<radialGradient id="paint0_radial_2619_1443" cx="0" cy="0" r="1" gradientUnits="userSpaceOnUse" gradientTransform="translate(50.3435 56.359) scale(3.70286)">
<stop stop-color="#CF3502"/>
<stop offset="0.5" stop-color="#A61F06"/>
<stop offset="1" stop-color="#7D0909"/>
</radialGradient>
<clipPath id="clip0_2619_1443">
<rect width="96" height="96" fill="white" transform="translate(0.5)"/>
</clipPath>
</defs>
</svg>
