<svg width="65" height="24" viewBox="0 0 65 24" fill="none" xmlns="http://www.w3.org/2000/svg">
<path d="M63.7045 15.1903L57.3177 3.06455C56.8516 2.1297 56.1605 1.34871 55.2976 0.802792C54.0578 0.0186717 52.6142 -0.189854 51.2319 0.216264C49.8495 0.622382 48.6938 1.59394 47.9784 2.95287L41.5321 15.1911C40.055 17.9957 40.935 21.5945 43.493 23.2134C44.3074 23.7289 45.2323 24.0007 46.1679 24.0007C48.0782 24.0007 49.8581 22.8753 50.8122 21.0634L52.6185 17.634L54.4247 21.0634C55.3788 22.8753 57.1587 24.0007 59.069 24.0007C60.0046 24.0007 60.9295 23.7281 61.7439 23.2134C64.3026 21.5945 65.1818 17.9957 63.7045 15.1911V15.1903ZM49.5781 20.2816C48.8776 21.6116 47.5709 22.4379 46.1679 22.4379C45.4824 22.4379 44.8034 22.238 44.2056 21.86C42.3273 20.6713 41.6817 18.03 42.7662 15.9713L49.2125 3.73308C49.7377 2.73576 50.5856 2.02271 51.6002 1.72437C51.9387 1.62518 52.2828 1.57598 52.6241 1.57598C53.3054 1.57598 53.978 1.77201 54.5844 2.15548C55.1921 2.54051 55.6838 3.0833 56.0244 3.73308L56.0678 3.81587C56.2167 4.11499 56.335 4.4352 56.417 4.77337C56.6892 5.88551 56.5495 7.04685 56.0244 8.04418L49.5781 20.2824V20.2816ZM61.0313 21.8592C60.4335 22.2372 59.7552 22.4372 59.069 22.4372C57.666 22.4372 56.3593 21.6109 55.6589 20.2808L53.4415 16.0705L57.2585 8.82361C57.5314 8.30584 57.7274 7.75523 57.8449 7.18902L62.4707 15.9705C63.5554 18.0292 62.9089 20.6705 61.0313 21.8592Z" fill="#007AFF"/>
<path d="M42.7574 2.02509C40.8229 -0.422551 37.4326 -0.689654 35.1996 1.43075L32.2603 4.22047L29.3211 1.43075C27.0881 -0.688871 23.6978 -0.422551 21.7633 2.02587C19.8294 4.47351 20.0724 8.1895 22.3062 10.3099L26.9021 14.6725V18.1089C26.9021 21.3469 29.3055 23.9812 32.2596 23.9812C35.2138 23.9812 37.6172 21.3469 37.6172 18.1089V14.6725L42.213 10.3099C43.2946 9.28289 43.9474 7.85603 44.0499 6.29089C44.1526 4.72577 43.693 3.21142 42.756 2.02587L42.7574 2.02509ZM36.1935 18.1081C36.1935 20.4847 34.4293 22.4185 32.2611 22.4185C30.0928 22.4185 28.3285 20.4847 28.3285 18.1081V13.9587L23.2404 9.12904C21.6008 7.57327 21.4227 4.84526 22.842 3.04819C23.6187 2.0657 24.7153 1.56118 25.8176 1.56118C26.7303 1.56118 27.6474 1.90637 28.3898 2.61161L34.8361 8.7307C35.699 9.54998 36.1942 10.7379 36.1942 11.989V18.1081H36.1935ZM42.6299 6.17843C42.5543 7.32651 42.0762 8.37461 41.2817 9.12821L37.6186 12.6052V11.989C37.6186 10.2841 36.9445 8.6659 35.7682 7.54984L33.3491 5.25372L36.1323 2.61161C37.7711 1.05587 40.26 1.25112 41.6794 3.04819C42.367 3.91823 42.7047 5.03036 42.6291 6.17921L42.6299 6.17843Z" fill="#007AFF"/>
<path d="M22.8894 15.1903L16.5022 3.06456C16.0362 2.12893 15.345 1.34871 14.4814 0.80201C11.9235 -0.816992 8.64006 0.147538 7.16299 2.95209L0.716672 15.1903C-0.760415 17.9948 0.119567 21.5937 2.67757 23.2127C3.492 23.7281 4.41687 23.9999 5.35243 23.9999C7.26272 23.9999 9.04263 22.8745 9.99676 21.0626L11.803 17.6333L13.6093 21.0626C14.5634 22.8745 16.3433 23.9999 18.2536 23.9999C19.1891 23.9999 20.114 23.7274 20.9284 23.2127C23.4872 21.5937 24.3664 17.9948 22.8894 15.1903ZM8.76265 20.2816C8.06223 21.6116 6.75543 22.4379 5.35243 22.4379C4.66697 22.4379 3.98792 22.238 3.39011 21.86C1.51186 20.6713 0.866306 18.03 1.95078 15.9713L8.39709 3.73309C9.12461 2.35151 10.4492 1.57832 11.8095 1.57832C12.4763 1.57832 13.1511 1.7642 13.7689 2.15469C14.3767 2.53973 14.8683 3.08252 15.2089 3.73231L15.2524 3.8151C15.4013 4.11422 15.5196 4.43442 15.6015 4.77181C15.8737 5.88395 15.7341 7.04527 15.2089 8.0426L8.76265 20.2808V20.2816ZM20.2159 21.8592C19.6181 22.2372 18.9398 22.4372 18.2536 22.4372C16.8506 22.4372 15.5439 21.6109 14.8434 20.2808L12.626 16.0705L16.443 8.82361C16.7159 8.30584 16.9119 7.75523 17.0295 7.18902L21.6553 15.9705C22.7397 18.0292 22.0935 20.6705 20.2159 21.8592Z" fill="#007AFF"/>
</svg>
