<svg width="30" height="30" viewBox="0 0 30 30" fill="none" xmlns="http://www.w3.org/2000/svg">
<rect width="30" height="30" rx="7" fill="#84848A"/>
<path d="M9.69614 15.7733H14.9899C15.1927 15.7733 15.3617 15.7057 15.4969 15.5705C15.6321 15.4352 15.6997 15.2662 15.6997 15.0634V8.22821C15.6997 8.03215 15.6321 7.86651 15.4969 7.73129C15.3617 7.59608 15.1927 7.52847 14.9899 7.52847C14.7938 7.52847 14.6282 7.59608 14.4929 7.73129C14.3577 7.86651 14.2901 8.03215 14.2901 8.22821V14.3637H9.69614C9.49331 14.3637 9.32429 14.4313 9.18908 14.5665C9.05386 14.7017 8.98625 14.8673 8.98625 15.0634C8.98625 15.2662 9.05386 15.4352 9.18908 15.5705C9.32429 15.7057 9.49331 15.7733 9.69614 15.7733ZM15 25.0221C13.587 25.0221 12.2551 24.7517 11.0044 24.2108C9.76037 23.6699 8.66173 22.9229 7.70846 21.9696C6.75518 21.0163 6.00811 19.9177 5.46725 18.6737C4.92638 17.4229 4.65595 16.091 4.65595 14.678C4.65595 13.265 4.92638 11.9365 5.46725 10.6925C6.00811 9.44178 6.7518 8.33977 7.69832 7.38649C8.65159 6.43322 9.75022 5.68615 10.9942 5.14528C12.245 4.60441 13.5768 4.33398 14.9899 4.33398C16.4029 4.33398 17.7348 4.60441 18.9855 5.14528C20.2363 5.68615 21.3383 6.43322 22.2915 7.38649C23.2448 8.33977 23.9919 9.44178 24.5328 10.6925C25.0736 11.9365 25.3441 13.265 25.3441 14.678C25.3441 16.091 25.0736 17.4229 24.5328 18.6737C23.9919 19.9177 23.2448 21.0163 22.2915 21.9696C21.3383 22.9229 20.2363 23.6699 18.9855 24.2108C17.7415 24.7517 16.413 25.0221 15 25.0221Z" fill="white"/>
</svg>
