<svg width="83" height="82" viewBox="0 0 83 82" fill="none" xmlns="http://www.w3.org/2000/svg">
<path d="M48.4186 20.4363C48.4186 20.4363 48.2217 14.7908 48.911 9.73621C49.3445 6.55753 50.0009 1.38609 53.4078 1.13672C57.445 0.841403 61.7939 5.43628 64.748 8.88272C68.3459 13.0803 69.7042 16.7602 70.295 18.3029C70.8819 19.8355 69.895 21.1225 68.7235 18.389C68.1327 17.0105 66.4259 13.2031 63.2094 9.72384C59.6729 5.89865 56.9199 3.51628 53.818 3.8609C52.1105 4.05065 51.2667 6.85697 50.7655 9.76903C50.0763 13.7735 49.9777 18.2701 49.8792 20.3707C49.8005 22.0514 48.7797 22.1431 48.4186 20.4363Z" fill="url(#paint0_linear_2747_2033)"/>
<path d="M47.8092 20.1082C47.8092 20.1082 47.6124 14.4627 48.3016 9.40809C48.7351 6.2294 49.3915 1.05796 52.7984 0.80859C56.8357 0.513278 61.1845 5.10815 64.1386 8.55459C67.7365 12.7522 69.0948 16.432 69.6856 17.9748C70.2725 19.5074 69.2857 20.7944 68.1142 18.0608C67.5234 16.6823 65.8165 12.875 62.6 9.39572C59.0635 5.57053 56.3105 3.18815 53.2087 3.53278C51.5011 3.72253 50.6574 6.52884 50.1562 9.4409C49.4669 13.4453 49.3683 17.942 49.2699 20.0425C49.1911 21.7233 48.1704 21.815 47.8092 20.1082Z" fill="url(#paint1_linear_2747_2033)"/>
<path d="M75.513 13.8227L81.5855 76.2617L62.466 67.5041L62.123 13.9937C62.123 13.9854 62.1296 13.9787 62.1379 13.9787L75.513 13.8227Z" fill="url(#paint2_linear_2747_2033)"/>
<g opacity="0.6">
<path d="M62.125 18.7275L75.9762 18.6765L76.3979 23.0212L62.1908 22.9899L62.125 18.7275Z" fill="#FFFF71"/>
</g>
<g opacity="0.6">
<path d="M62.2109 29.2745L77.0079 29.2235L77.4202 33.5683L62.2396 33.537L62.2109 29.2745Z" fill="#FFFF71"/>
</g>
<g opacity="0.6">
<path d="M62.2852 40.0402L78.0297 39.9892L78.4668 44.4135L62.3157 44.3029L62.2852 40.0402Z" fill="#FFFF71"/>
</g>
<g opacity="0.6">
<path d="M62.377 50.7157L79.0637 50.6647L79.4837 55.089L62.4092 54.9784L62.377 50.7157Z" fill="#FFFF71"/>
</g>
<g opacity="0.6">
<path d="M66.3438 61.3974L80.1117 61.6277L80.5506 66.0763L71.0022 65.9034L66.3438 61.3974Z" fill="#FFFF71"/>
</g>
<g opacity="0.6">
<path d="M77.5273 72.1865L81.046 72.2493L81.7821 76.2706L77.5273 72.1865Z" fill="#FFFF71"/>
</g>
<path d="M62.123 13.9936L75.5132 13.8228L81.5319 76.468" stroke="#DD9200" stroke-width="1.5" stroke-linecap="round" stroke-linejoin="round"/>
<path d="M81.5877 76.0822C81.5877 76.0822 81.7234 76.9286 81.5914 76.935C79.8441 77.0188 53.574 78.1676 53.3946 78.036C52.4884 77.3715 62.3796 57.5835 62.3796 57.5835L81.5877 76.0822Z" fill="#B2821E"/>
<g opacity="0.39">
<path d="M60.3739 61.6453L66.3446 61.3972L71.0032 65.9032L58.1152 66.261L60.3739 61.6453Z" fill="#ACE481"/>
</g>
<g opacity="0.39">
<path d="M54.9977 73.0839L77.5286 72.1933L81.5867 76.082L53.3874 77.6585C53.3874 77.6585 53.3505 77.1724 53.8059 76.0277C54.2064 75.021 54.9977 73.0839 54.9977 73.0839Z" fill="#ACE481"/>
</g>
<path d="M62.3809 57.5835L81.5329 76.4681" stroke="#B36A00" stroke-width="1.5" stroke-linecap="round" stroke-linejoin="round"/>
<path d="M53.7773 77.6529L81.5315 76.4679" stroke="#C27500" stroke-width="1.5" stroke-linecap="round" stroke-linejoin="round"/>
<path d="M62.1123 13.9763L58.824 13.15L53.4082 77.8431L62.4485 57.4735L62.1241 13.9907C62.1241 13.9838 62.1191 13.9778 62.1123 13.9763Z" fill="url(#paint3_linear_2747_2033)"/>
<g opacity="0.3">
<path d="M58.2648 18.0789L62.1266 18.7297L62.1922 22.9899L57.8711 22.5373L58.2648 18.0789Z" fill="#DBFF8A"/>
</g>
<g opacity="0.3">
<path d="M57.5191 28.7202L62.2128 29.2744L62.2426 33.5382L57.1621 33.3358L57.5191 28.7202Z" fill="#DBFF8A"/>
</g>
<g opacity="0.3">
<path d="M56.571 39.9945L62.2862 40.0402L62.3241 44.3122L56.1895 44.2451L56.571 39.9945Z" fill="#DBFF8A"/>
</g>
<g opacity="0.3">
<path d="M55.6526 51.0148L62.3608 50.7323L62.3987 55.0043L55.2793 55.6223L55.6526 51.0148Z" fill="#DBFF8A"/>
</g>
<g opacity="0.3">
<path d="M54.7092 62.0678L60.3753 61.6453L58.1167 66.2608L54.3359 66.6752L54.7092 62.0678Z" fill="#DBFF8A"/>
</g>
<path d="M58.8232 13.15L62.1116 13.9763L62.3803 57.5833L53.5449 76.3243" stroke="#9F3B00" stroke-width="1.5" stroke-linecap="round" stroke-linejoin="round"/>
<path d="M22.5375 16.3008L58.8229 13.1499L53.4071 77.843L16.416 73.9044L22.5375 16.3008Z" fill="url(#paint4_linear_2747_2033)"/>
<g opacity="0.7">
<path d="M22.109 20.36L58.2632 18.0787L57.8692 22.537L21.707 24.3479L22.109 20.36Z" fill="#FFFF71"/>
</g>
<g opacity="0.7">
<path d="M21.1271 29.6159L57.281 28.7133L56.9282 33.3386L20.6758 33.5819L21.1271 29.6159Z" fill="#FFFF71"/>
</g>
<path d="M31.7017 15.5049L34.1512 15.3039C34.1512 15.3039 31.8905 23.8212 30.6719 23.4642C29.8409 23.2209 30.344 21.9693 30.3684 21.1051C30.3882 20.3997 31.7017 15.5049 31.7017 15.5049Z" fill="url(#paint5_linear_2747_2033)"/>
<path d="M48.5477 14.036L51.9099 13.7591C51.9099 13.7591 51.1631 22.8511 49.1445 23.0604C48.2833 23.1496 48.4249 20.6606 48.4493 19.7964C48.4691 19.091 48.5477 14.036 48.5477 14.036Z" fill="url(#paint6_linear_2747_2033)"/>
<g opacity="0.7">
<path d="M20.1095 39.5175L56.5713 39.9946L56.2267 44.2451L19.6582 43.4835L20.1095 39.5175Z" fill="#FFFF71"/>
</g>
<g opacity="0.7">
<path d="M18.9884 49.845L55.6512 51.0148L55.2779 55.6222L18.5371 53.811L18.9884 49.845Z" fill="#FFFF71"/>
</g>
<g opacity="0.7">
<path d="M17.965 59.7902L54.6108 62.0501L54.2581 66.6752L17.5098 63.7254L17.965 59.7902Z" fill="#FFFF71"/>
</g>
<g opacity="0.7">
<path d="M16.8673 69.9384L53.6258 73.0785L53.2731 77.7035L16.416 73.9044L16.8673 69.9384Z" fill="#FFFF71"/>
</g>
<mask id="mask0_2747_2033" style="mask-type:luminance" maskUnits="userSpaceOnUse" x="16" y="13" width="43" height="65">
<path d="M22.5375 16.3008L58.8229 13.1499L53.4071 77.843L16.416 73.9044L22.5375 16.3008Z" fill="url(#paint7_radial_2747_2033)"/>
</mask>
<g mask="url(#mask0_2747_2033)">
<path d="M22.5375 16.3008L58.8229 13.1499L53.4071 77.843L16.416 73.9044L22.5375 16.3008Z" fill="url(#paint8_radial_2747_2033)" fill-opacity="0.5"/>
</g>
<path d="M53.3886 77.6585L16.416 73.9044L22.5375 16.3008L58.8229 13.1499" stroke="#DD9200" stroke-width="1.5" stroke-linecap="round" stroke-linejoin="round"/>
<path d="M58.824 13.1499L53.4082 77.843" stroke="#FFF5A3" stroke-width="1.125" stroke-linecap="round" stroke-linejoin="round"/>
<path d="M31.5403 23.3105C31.5093 24.2585 30.8279 25.0057 30.0183 24.9793C29.2087 24.9528 28.5776 24.1629 28.6085 23.2149C28.6394 22.2669 29.3208 21.5197 30.1304 21.5462C30.9401 21.5726 31.5712 22.3625 31.5403 23.3105Z" fill="url(#paint9_radial_2747_2033)"/>
<path d="M50.2305 22.4707C50.1986 23.4457 49.4827 24.2135 48.6315 24.1858C47.7802 24.158 47.1157 23.3452 47.1476 22.3702C47.1795 21.3952 47.8953 20.6274 48.7466 20.6551C49.5978 20.6829 50.2623 21.4957 50.2305 22.4707Z" fill="url(#paint10_radial_2747_2033)"/>
<path d="M29.9289 23.6319C29.856 23.1273 29.8153 21.4128 30.3557 19.1516C31.2418 15.4427 33.8109 9.98941 36.2966 6.87598C39.546 2.80591 42.5816 0.108912 46.2583 0.721662C49.0646 1.18948 49.3929 4.72929 49.5322 9.70685C49.6307 13.2272 49.6719 15.5409 49.6554 17.8796C49.637 20.4902 49.6758 22.2519 49.5692 22.8182C49.4625 23.3844 48.8797 23.5074 48.4367 23.015C48.0523 22.5879 48.0305 20.2922 48.047 18.1997C48.0633 16.1308 48.041 13.6324 47.9486 10.0269C47.883 7.46679 47.8008 3.38023 44.8796 2.93716C42.6122 2.59329 39.4333 4.70173 37.0023 8.02479C33.4247 12.9153 32.0542 16.8212 31.3567 19.4962C30.8897 21.2874 30.9052 23.0612 30.9137 23.6237C30.9219 24.1734 30.0273 24.3129 29.9289 23.6319Z" fill="url(#paint11_linear_2747_2033)"/>
<path d="M29.343 23.21C29.27 22.7055 29.2293 20.991 29.7697 18.7297C30.6558 15.0208 33.225 9.56754 35.7107 6.4541C38.96 2.38404 41.9957 -0.312963 45.6723 0.299787C48.4787 0.767601 48.807 4.30741 48.9463 9.28498C49.0447 12.8053 49.086 15.119 49.0695 17.4577C49.0511 20.0683 49.0899 21.83 48.9832 22.3963C48.8765 22.9625 48.2938 23.0855 47.8507 22.5932C47.4663 22.166 47.4446 19.8703 47.4611 17.7778C47.4774 15.7089 47.4551 13.2105 47.3627 9.60504C47.297 7.04491 47.2149 2.95835 44.2937 2.51529C42.0262 2.17141 38.8473 4.27985 36.4164 7.60291C32.8387 12.4935 31.4683 16.3993 30.7708 19.0743C30.3037 20.8655 30.3193 22.6393 30.3277 23.2018C30.336 23.7515 29.4414 23.891 29.343 23.21Z" fill="url(#paint12_linear_2747_2033)"/>
<path d="M29.7305 23.5715C29.7305 23.5715 28.511 17.2428 28.434 12.1164C28.3683 7.75102 28.5986 3.85214 32.8815 3.77958C36.7545 3.71396 40.3322 6.33971 43.4503 11.5256C46.2992 16.2637 47.2907 19.9282 47.9471 23.3581C48.2555 24.9701 46.4687 26.2186 45.9367 23.2925C45.5428 21.1261 44.6368 16.7075 41.801 12.1164C39.0438 7.65258 35.7562 6.38714 33.3328 6.55308C30.9367 6.71714 30.3542 9.52346 30.4526 12.3463C30.6048 16.709 31.0762 21.0935 31.4373 23.3418C31.7042 25.0031 30.0917 25.2783 29.7305 23.5715Z" fill="url(#paint13_linear_2747_2033)"/>
<path d="M29.004 23.6887C29.004 23.6887 27.7845 17.36 27.7074 12.2336C27.6418 7.86821 27.872 3.96933 32.1549 3.89677C36.0279 3.83114 39.6056 6.45689 42.7237 11.6428C45.5726 16.3809 46.5641 20.0454 47.2205 23.4753C47.529 25.0873 45.7421 26.3358 45.2102 23.4097C44.8162 21.2433 43.9102 16.8247 41.0745 12.2336C38.3173 7.76977 35.0297 6.50433 32.6062 6.67027C30.2102 6.83433 29.6276 9.64064 29.726 12.4635C29.8783 16.8262 30.3497 21.2107 30.7108 23.459C30.9776 25.1203 29.3651 25.3955 29.004 23.6887Z" fill="url(#paint14_linear_2747_2033)"/>
<path d="M53.7047 22.6714C53.7047 22.6714 59.8097 76.8943 59.2845 78.1415C58.7593 79.3888 45.696 73.8746 45.696 73.8746L41.2977 68.5573L41.1992 22.9175L53.7047 22.6714Z" fill="url(#paint15_linear_2747_2033)"/>
<path d="M53.7047 22.6714C53.7047 22.6714 59.8097 76.8943 59.2845 78.1415C58.7593 79.3888 45.696 73.8746 45.696 73.8746L41.2977 68.5573L41.1992 22.9175L53.7047 22.6714Z" fill="url(#paint16_linear_2747_2033)"/>
<g opacity="0.22">
<path d="M49.7749 34.0873C49.8118 35.0362 48.9223 35.8415 47.7879 35.8858C46.6536 35.93 45.7041 35.1964 45.6671 34.2474C45.6302 33.2985 46.5197 32.4932 47.6541 32.4489C48.7884 32.4047 49.7379 33.1384 49.7749 34.0873Z" fill="#FFFFFA"/>
<path d="M44.8272 25.6435C44.8641 26.5925 43.9746 27.3978 42.8403 27.442C42.2022 27.467 41.6131 27.2288 41.2214 26.8617C41.2105 26.3922 41.2109 25.0122 41.2051 24.6335C41.5675 24.2661 42.0968 24.0291 42.7062 24.0053C43.8406 23.9611 44.7903 24.6946 44.8272 25.6435Z" fill="#FFFFFA"/>
<path d="M54.2064 27.2278C53.9392 27.3491 53.6263 27.4295 53.3038 27.4421C52.1694 27.4864 51.2197 26.7527 51.1828 25.8037C51.1458 24.8548 52.0353 24.0495 53.1697 24.0052C53.4067 23.996 53.6356 24.0208 53.8498 24.0742C53.9169 24.6937 54.1306 26.508 54.2064 27.2278Z" fill="#FFFFFA"/>
<path d="M54.5346 42.5473C54.5716 43.4962 53.6821 44.3015 52.5477 44.3458C51.4133 44.39 50.4638 43.6564 50.4269 42.7074C50.39 41.7585 51.2795 40.9532 52.4138 40.9089C53.5482 40.8647 54.4977 41.5984 54.5346 42.5473Z" fill="#FFFFFA"/>
<path d="M44.7544 42.4489C44.7913 43.3978 43.9024 44.2712 42.7675 44.2472C42.093 44.233 41.5737 44.1015 41.2538 43.9157C41.263 43.3988 41.2294 41.3098 41.2478 41.1955C41.5525 41.0078 42.0334 40.8568 42.6336 40.8105C43.7655 40.7233 44.7175 41.5 44.7544 42.4489Z" fill="#FFFFFA"/>
<path d="M49.2827 50.9171C49.3196 51.866 48.4301 52.6714 47.2958 52.7156C46.1614 52.7599 45.2119 52.0262 45.1749 51.0772C45.138 50.1283 46.0275 49.323 47.1619 49.2787C48.2963 49.2345 49.2458 49.9682 49.2827 50.9171Z" fill="#FFFFFA"/>
<path d="M56.9928 52.7807C55.8584 52.825 54.9286 52.0917 54.8917 51.1427C54.8547 50.1938 55.7878 49.4449 56.6309 49.3896C56.7386 50.4019 56.924 52.0062 56.9928 52.7807Z" fill="#FFFFFA"/>
<path d="M54.0093 59.3526C54.0462 60.3015 53.1567 61.1068 52.0223 61.1511C50.8879 61.1953 49.9384 60.4616 49.9015 59.5127C49.8646 58.5637 50.7541 57.7584 51.8884 57.7142C53.0228 57.6699 53.9723 58.4036 54.0093 59.3526Z" fill="#FFFFFA"/>
<path d="M56.3212 66.2795C57.4565 66.2795 58.3767 67.0496 58.3767 67.9993C58.3767 68.949 57.4565 69.719 56.3212 69.719C55.1859 69.719 54.2656 68.949 54.2656 67.9993C54.2656 67.0496 55.1859 66.2795 56.3212 66.2795Z" fill="#FFFFFA"/>
<path d="M44.3925 59.2539C44.4294 60.2029 43.5399 61.0082 42.4055 61.0524C42.0017 61.0682 41.6094 60.9772 41.2852 60.821C41.2813 60.0101 41.2787 58.2832 41.2794 57.8717C41.5661 57.7269 41.9154 57.6296 42.2715 57.6157C43.4059 57.5715 44.3555 58.305 44.3925 59.2539Z" fill="#FFFFFA"/>
<path d="M47.248 66.8996C47.248 66.8996 47.4329 66.4751 48.044 66.6862C49.3979 67.154 49.6225 68.9839 49.6225 68.9839L47.248 66.8996Z" fill="#FFFFFA"/>
</g>
<path d="M41.1992 22.9173L53.7045 22.6713C53.7045 22.6713 59.2965 76.3779 59.494 78.4425" stroke="#D63AB1" stroke-width="1.5" stroke-linecap="round" stroke-linejoin="round"/>
<path d="M41.202 22.9173L41.3661 75.2529L31.1582 80.4718L36.9679 22.6712L41.202 22.9173Z" fill="url(#paint17_linear_2747_2033)"/>
<g opacity="0.06">
<path d="M38.1568 59.7735C38.1248 60.7775 37.6189 61.5761 37.0269 61.5572C36.435 61.5382 35.9813 60.7089 36.0133 59.7049C36.0454 58.7008 36.5513 57.9022 37.1432 57.9212C37.7351 57.9401 38.1889 58.7694 38.1568 59.7735Z" fill="#FFFFFA"/>
</g>
<g opacity="0.06">
<path d="M36.4752 51.5942C36.4347 52.547 35.9905 53.3019 35.4832 53.2804C34.9758 53.2588 34.5972 52.469 34.6377 51.5162C34.6782 50.5633 35.1224 49.8084 35.6298 49.83C36.1372 49.8515 36.5157 50.6413 36.4752 51.5942Z" fill="#FFFFFA"/>
</g>
<g opacity="0.06">
<path d="M40.4994 51.0883C40.4634 51.9358 40.0487 52.6065 39.5726 52.5862C39.0966 52.566 38.7399 51.8627 38.7759 51.0152C38.8119 50.1677 39.2267 49.497 39.7028 49.5172C40.1788 49.5375 40.5354 50.2408 40.4994 51.0883Z" fill="#FFFFFA"/>
</g>
<g opacity="0.06">
<path d="M38.5706 42.8362C38.5291 43.8146 38.0145 44.5872 37.4214 44.5621C36.8283 44.537 36.3811 43.7234 36.4226 42.7451C36.464 41.7667 36.9787 40.994 37.5718 41.0191C38.1648 41.0442 38.612 41.8578 38.5706 42.8362Z" fill="#FFFFFA"/>
</g>
<g opacity="0.06">
<path d="M40.8199 34.2614C40.7803 35.1939 40.3603 35.9332 39.8818 35.9129C39.4033 35.8927 39.0474 35.1204 39.087 34.1879C39.1266 33.2555 39.5466 32.5162 40.0251 32.5364C40.5036 32.5567 40.8594 33.329 40.8199 34.2614Z" fill="#FFFFFA"/>
</g>
<g opacity="0.06">
<path d="M37.4059 34.2251C37.3654 35.1797 36.9447 35.9372 36.4662 35.9169C35.9877 35.8967 35.6326 35.1062 35.6731 34.1516C35.7136 33.197 36.1343 32.4395 36.6128 32.4598C37.0913 32.48 37.4464 33.2705 37.4059 34.2251Z" fill="#FFFFFA"/>
</g>
<g opacity="0.06">
<path d="M39.2745 25.6277C39.2349 26.5601 38.8309 27.3002 38.3719 27.2807C37.9129 27.2612 37.5729 26.4896 37.6125 25.5572C37.6521 24.6247 38.0561 23.8847 38.5151 23.9042C38.9741 23.9237 39.3141 24.6952 39.2745 25.6277Z" fill="#FFFFFA"/>
</g>
<g opacity="0.06">
<path d="M35.7393 69.0269C35.6953 70.0658 35.1421 70.886 34.5041 70.859C33.866 70.832 33.3845 69.9676 33.4286 68.9287C33.4726 67.8897 34.0258 67.0696 34.6638 67.0966C35.3019 67.1236 35.7834 67.988 35.7393 69.0269Z" fill="#FFFFFA"/>
</g>
<path d="M36.9668 22.6711L41.2007 22.9173L41.4357 62.2018" stroke="#951B44" stroke-width="1.5" stroke-linecap="round" stroke-linejoin="round"/>
<path d="M31.4188 80.5702C30.6898 80.4855 31.4436 80.0942 31.5748 79.7578C31.9939 78.6842 41.3642 61.8613 41.3642 61.8613C41.3642 61.8613 59.0884 76.9597 59.2852 77.813C59.4821 78.6664 58.626 78.7905 57.7262 78.9784C56.2327 79.2902 32.8301 80.7343 31.4188 80.5702Z" fill="url(#paint18_linear_2747_2033)"/>
<path d="M31.4189 80.5702C30.6899 80.4855 31.4434 80.0942 31.5747 79.7578C31.9937 78.6842 41.364 61.8613 41.364 61.8613C41.364 61.8613 58.6212 77.4731 59.5127 78.2988C59.842 78.6037 58.5492 78.5979 57.6396 78.6817C56.1205 78.8216 32.8302 80.7343 31.4189 80.5702Z" fill="url(#paint19_linear_2747_2033)"/>
<g opacity="0.13">
<path d="M48.1454 76.6691C48.5287 77.6015 48.3037 78.5775 47.6431 78.849C46.9826 79.1205 46.1366 78.5844 45.7533 77.652C45.3701 76.7195 45.5951 75.7436 46.2556 75.4721C46.9162 75.2006 47.7622 75.7367 48.1454 76.6691Z" fill="#FFFFFA"/>
<path d="M42.2743 68.1643C42.6576 69.0967 42.4326 70.0727 41.772 70.3442C41.1115 70.6157 40.2655 70.0796 39.8822 69.1472C39.499 68.2147 39.724 67.2388 40.3845 66.9673C41.0451 66.6958 41.8911 67.2318 42.2743 68.1643Z" fill="#FFFFFA"/>
<path d="M49.6222 68.9841C49.6096 69.4731 49.4092 69.8874 49.0415 70.0785C48.4079 70.4079 47.5173 69.9499 47.0523 69.0553C46.5873 68.1607 46.739 67.1871 47.2477 66.8998C47.9452 67.5069 49.1514 68.5491 49.6222 68.9841Z" fill="#FFFFFA"/>
<path d="M55.204 76.3042C55.5873 77.2366 55.3623 78.2126 54.7017 78.4841C54.0412 78.7556 53.1952 78.2195 52.8119 77.2871C52.4287 76.3546 52.6537 75.3787 53.3142 75.1072C53.9748 74.8357 54.8208 75.3718 55.204 76.3042Z" fill="#FFFFFA"/>
<path d="M41.3505 77.1943C41.7338 78.1267 41.5088 79.1027 40.8482 79.3742C40.1876 79.6457 39.3416 79.1096 38.9584 78.1772C38.5751 77.2447 38.8001 76.2688 39.4607 75.9973C40.1213 75.7258 40.9673 76.2619 41.3505 77.1943Z" fill="#FFFFFA"/>
<path d="M34.3254 77.2927C34.7086 78.2252 34.4838 79.2011 33.8233 79.4726C33.1627 79.7441 32.5571 79.4842 32.1738 78.5518C32.5882 77.801 33.0116 76.9867 33.4488 76.2039C33.7989 76.4188 34.13 76.8174 34.3254 77.2927Z" fill="#FFFFFA"/>
</g>
<path d="M41.3652 61.8613L59.4957 78.3797" stroke="#BD2F8E" stroke-width="1.5" stroke-linecap="round" stroke-linejoin="round"/>
<path d="M31.1328 80.5578C31.1328 80.5578 58.3469 78.6399 59.4959 78.4425" stroke="#B01E70" stroke-width="1.5" stroke-linecap="round" stroke-linejoin="round"/>
<path d="M31.1328 80.5579L41.3651 61.8615" stroke="#A21A66" stroke-width="1.5" stroke-linecap="round" stroke-linejoin="round"/>
<path d="M6.73551 24.4437L36.965 22.6712C36.965 22.6712 31.8517 80.0078 31.1308 80.5579C30.6629 80.9149 2.16238 77.2906 1.18851 76.533C0.597696 76.0735 6.73551 24.4437 6.73551 24.4437Z" fill="url(#paint20_linear_2747_2033)"/>
<path d="M12.686 24.0907L15.7073 23.943C15.7073 23.943 14.8437 31.5701 13.1549 30.965C12.5002 30.7305 12.2354 29.3057 12.2549 28.6038C12.2708 28.031 12.686 24.0907 12.686 24.0907Z" fill="url(#paint21_linear_2747_2033)"/>
<path d="M27.7194 23.2336L30.8814 23.1271C30.8814 23.1271 29.8445 31.3123 28.097 30.5639C27.4429 30.2838 27.269 29.4742 27.2885 28.6344C27.3045 27.9489 27.7194 23.2336 27.7194 23.2336Z" fill="url(#paint22_linear_2747_2033)"/>
<g opacity="0.25">
<path d="M24.4524 76.8855C24.3562 77.808 23.8492 78.5109 23.3199 78.4558C22.7906 78.4007 22.4392 77.6081 22.5354 76.6856C22.6316 75.7631 23.1386 75.0602 23.6679 75.1153C24.1972 75.1704 24.5486 75.963 24.4524 76.8855Z" fill="#FDFFFF"/>
<path d="M29.1047 77.6732C29.0085 78.5957 28.5015 79.2986 27.9722 79.2435C27.4429 79.1884 27.0915 78.3958 27.1877 77.4733C27.2839 76.5508 27.7909 75.8479 28.3202 75.903C28.8495 75.9581 29.2009 76.7507 29.1047 77.6732Z" fill="#FDFFFF"/>
<path d="M26.4231 59.8751C26.3269 60.7976 25.8199 61.5006 25.2906 61.4454C24.7613 61.3903 24.4099 60.5977 24.5061 59.6752C24.6023 58.7527 25.1093 58.0498 25.6386 58.1049C26.1679 58.1601 26.5193 58.9526 26.4231 59.8751Z" fill="#FDFFFF"/>
<path d="M31.1243 60.0967C31.0281 61.0192 30.5211 61.7221 29.9918 61.667C29.4624 61.6119 29.1111 60.8193 29.2073 59.8968C29.3034 58.9743 29.8104 58.2714 30.3398 58.3265C30.8691 58.3816 31.2204 59.1742 31.1243 60.0967Z" fill="#FDFFFF"/>
<path d="M6.67126 42.7187C6.58651 43.532 6.13951 44.1519 5.67264 44.1034C5.20576 44.0548 4.89601 43.3558 4.98076 42.5424C5.06551 41.729 5.51251 41.1092 5.97939 41.1577C6.44626 41.2063 6.75601 41.9053 6.67126 42.7187Z" fill="#FDFFFF"/>
<path d="M10.7368 42.7136C10.6461 43.5844 10.1674 44.2481 9.66769 44.196C9.168 44.1439 8.83631 43.3958 8.92706 42.525C9.01781 41.6543 9.4965 40.9905 9.99619 41.0426C10.4959 41.0948 10.8276 41.8429 10.7368 42.7136Z" fill="#FDFFFF"/>
<path d="M14.956 42.6911C14.863 43.5834 14.3725 44.2638 13.8603 44.2104C13.348 44.157 13.0083 43.3903 13.1013 42.498C13.1943 41.6057 13.6848 40.9252 14.197 40.9787C14.7093 41.0321 15.049 41.7988 14.956 42.6911Z" fill="#FDFFFF"/>
<path d="M19.2414 42.7363C19.1477 43.6363 18.6529 44.3223 18.1363 44.2685C17.6197 44.2147 17.2772 43.4413 17.3709 42.5413C17.4647 41.6413 17.9595 40.9552 18.476 41.009C18.9926 41.0628 19.3352 41.8363 19.2414 42.7363Z" fill="#FDFFFF"/>
<path d="M23.6387 42.762C23.545 43.6614 23.0505 44.3469 22.5344 44.2931C22.0182 44.2393 21.6756 43.4668 21.7694 42.5674C21.8631 41.6679 22.3575 40.9824 22.8737 41.0362C23.3899 41.09 23.7325 41.8625 23.6387 42.762Z" fill="#FDFFFF"/>
<path d="M4.87243 58.2487C4.78768 59.0621 4.34068 59.682 3.87381 59.6334C3.40693 59.5849 3.09718 58.8859 3.18193 58.0725C3.26668 57.2591 3.71368 56.6392 4.18056 56.6878C4.64743 56.7364 4.95718 57.4354 4.87243 58.2487Z" fill="#FDFFFF"/>
<path d="M8.8872 58.6652C8.79645 59.5359 8.31777 60.1997 7.81808 60.1475C7.31839 60.0954 6.9867 59.3473 7.07745 58.4765C7.1682 57.6058 7.64689 56.942 8.14658 56.9942C8.64627 57.0463 8.97795 57.7944 8.8872 58.6652Z" fill="#FDFFFF"/>
<path d="M13.038 58.9382C12.945 59.8305 12.4545 60.511 11.9423 60.4575C11.43 60.4041 11.0903 59.6374 11.1833 58.7451C11.2763 57.8528 11.7668 57.1723 12.279 57.2258C12.7913 57.2792 13.131 58.0459 13.038 58.9382Z" fill="#FDFFFF"/>
<path d="M17.4035 59.2132C17.3098 60.1132 16.815 60.7993 16.2984 60.7455C15.7818 60.6917 15.4393 59.9182 15.533 59.0182C15.6268 58.1182 16.1216 57.4322 16.6382 57.486C17.1547 57.5398 17.4973 58.3132 17.4035 59.2132Z" fill="#FDFFFF"/>
<path d="M21.8497 59.5179C21.7559 60.4174 21.2615 61.1029 20.7453 61.0491C20.2291 60.9952 19.8865 60.2227 19.9803 59.3233C20.074 58.4239 20.5685 57.7384 21.0847 57.7922C21.6009 57.846 21.9434 58.6185 21.8497 59.5179Z" fill="#FDFFFF"/>
<path d="M3.14782 74.061C3.06307 74.8744 2.61607 75.4942 2.1492 75.4457C1.68232 75.3971 1.37257 74.6981 1.45732 73.8847C1.54207 73.0714 1.98907 72.4515 2.45595 72.5C2.92282 72.5486 3.23257 73.2476 3.14782 74.061Z" fill="#FDFFFF"/>
<path d="M7.06494 74.5841C6.97419 75.4548 6.4955 76.1186 5.99581 76.0665C5.49613 76.0143 5.16444 75.2662 5.25519 74.3955C5.34594 73.5247 5.82463 72.861 6.32431 72.9131C6.824 72.9652 7.15569 73.7133 7.06494 74.5841Z" fill="#FDFFFF"/>
<path d="M11.2412 75.0459C11.1482 75.9382 10.6577 76.6187 10.1454 76.5652C9.63317 76.5118 9.29342 75.7451 9.38642 74.8528C9.47942 73.9605 9.96992 73.28 10.4822 73.3335C10.9944 73.3869 11.3342 74.1536 11.2412 75.0459Z" fill="#FDFFFF"/>
<path d="M15.4328 75.7149C15.3391 76.6149 14.8443 77.301 14.3277 77.2471C13.8111 77.1933 13.4686 76.4199 13.5623 75.5199C13.6561 74.6199 14.1509 73.9338 14.6675 73.9876C15.184 74.0415 15.5266 74.8149 15.4328 75.7149Z" fill="#FDFFFF"/>
<path d="M19.8555 76.3147C19.7618 77.2141 19.2673 77.8996 18.7512 77.8458C18.235 77.792 17.8924 77.0195 17.9862 76.1201C18.0799 75.2206 18.5743 74.5351 19.0905 74.589C19.6067 74.6428 19.9493 75.4153 19.8555 76.3147Z" fill="#FDFFFF"/>
<path d="M28.2786 42.8321C28.1824 43.7546 27.6754 44.4576 27.1461 44.4024C26.6167 44.3473 26.2654 43.5547 26.3616 42.6322C26.4577 41.7097 26.9647 41.0068 27.4941 41.0619C28.0234 41.1171 28.3747 41.9096 28.2786 42.8321Z" fill="#FDFFFF"/>
<path d="M9.52673 34.989C9.44198 35.8024 8.99498 36.4222 8.52811 36.3737C8.06123 36.3251 7.75148 35.6261 7.83623 34.8127C7.92098 33.9994 8.36798 33.3795 8.83486 33.4281C9.30173 33.4766 9.61148 34.1756 9.52673 34.989Z" fill="#FDFFFF"/>
<path d="M13.7095 34.8362C13.6187 35.7069 13.14 36.3707 12.6403 36.3186C12.1407 36.2664 11.809 35.5183 11.8997 34.6476C11.9905 33.7768 12.4692 33.1131 12.9688 33.1652C13.4685 33.2173 13.8002 33.9654 13.7095 34.8362Z" fill="#FDFFFF"/>
<path d="M18.0263 34.6166C17.9333 35.5089 17.4428 36.1894 16.9306 36.1359C16.4183 36.0825 16.0786 35.3158 16.1716 34.4235C16.2646 33.5312 16.7551 32.8508 17.2673 32.9042C17.7796 32.9576 18.1193 33.7243 18.0263 34.6166Z" fill="#FDFFFF"/>
<path d="M22.4738 34.58C22.3801 35.48 21.8853 36.1661 21.3687 36.1123C20.8522 36.0585 20.5096 35.285 20.6033 34.385C20.6971 33.485 21.1919 32.799 21.7085 32.8528C22.225 32.9066 22.5676 33.68 22.4738 34.58Z" fill="#FDFFFF"/>
<path d="M26.9532 34.3922C26.8594 35.2916 26.365 35.9771 25.8488 35.9233C25.3326 35.8695 24.9901 35.097 25.0838 34.1975C25.1776 33.2981 25.672 32.6126 26.1882 32.6664C26.7044 32.7202 27.0469 33.4927 26.9532 34.3922Z" fill="#FDFFFF"/>
<path d="M31.6731 34.3473C31.5769 35.2698 31.0699 35.9728 30.5406 35.9177C30.0113 35.8625 29.6599 35.07 29.7561 34.1475C29.8523 33.225 30.3593 32.522 30.8886 32.5772C31.4179 32.6323 31.7693 33.4248 31.6731 34.3473Z" fill="#FDFFFF"/>
<path d="M36.0944 34.2082C35.9928 35.1829 35.78 36.0066 35.2207 35.9482C34.6614 35.8899 34.2901 35.0526 34.3918 34.0779C34.4934 33.1033 35.0291 32.3604 35.5884 32.4187C36.1477 32.4771 36.1961 33.2336 36.0944 34.2082Z" fill="#FDFFFF"/>
<path d="M7.77087 50.6289C7.68612 51.4423 7.23912 52.0622 6.77225 52.0136C6.30537 51.965 5.99562 51.266 6.08037 50.4527C6.16512 49.6393 6.61212 49.0194 7.079 49.068C7.54587 49.1165 7.85562 49.8155 7.77087 50.6289Z" fill="#FDFFFF"/>
<path d="M11.8716 50.7716C11.7808 51.6423 11.3021 52.3061 10.8025 52.254C10.3028 52.2018 9.97108 51.4537 10.0618 50.583C10.1526 49.7122 10.6313 49.0485 11.131 49.1006C11.6306 49.1527 11.9623 49.9008 11.8716 50.7716Z" fill="#FDFFFF"/>
<path d="M16.2373 51.0116C16.1443 51.9039 15.6538 52.5844 15.1415 52.5309C14.6293 52.4775 14.2895 51.7108 14.3825 50.8185C14.4755 49.9262 14.966 49.2457 15.4783 49.2992C15.9905 49.3526 16.3303 50.1193 16.2373 51.0116Z" fill="#FDFFFF"/>
<path d="M20.4875 51.0898C20.3938 51.9898 19.899 52.6759 19.3824 52.622C18.8658 52.5682 18.5233 51.7948 18.617 50.8948C18.7108 49.9948 19.2056 49.3087 19.7221 49.3625C20.2387 49.4164 20.5813 50.1898 20.4875 51.0898Z" fill="#FDFFFF"/>
<path d="M25.0489 51.2466C24.9551 52.146 24.4607 52.8315 23.9445 52.7777C23.4283 52.7239 23.0858 51.9514 23.1795 51.0519C23.2733 50.1525 23.7677 49.467 24.2839 49.5208C24.8001 49.5746 25.1426 50.3471 25.0489 51.2466Z" fill="#FDFFFF"/>
<path d="M29.6555 51.4316C29.5593 52.3541 29.0523 53.057 28.523 53.0019C27.9937 52.9468 27.6423 52.1542 27.7385 51.2317C27.8347 50.3092 28.3417 49.6063 28.871 49.6614C29.4003 49.7165 29.7517 50.5091 29.6555 51.4316Z" fill="#FDFFFF"/>
<path d="M34.4976 51.7014C34.396 52.676 33.8601 53.4189 33.3008 53.3606C32.7415 53.3023 32.3702 52.4649 32.4718 51.4903C32.5735 50.5157 33.1093 49.7728 33.6686 49.8311C34.228 49.8894 34.5992 50.7268 34.4976 51.7014Z" fill="#FDFFFF"/>
<path d="M5.88611 66.4461C5.80136 67.2594 5.35436 67.8793 4.88748 67.8307C4.42061 67.7822 4.11086 67.0832 4.19561 66.2698C4.28036 65.4564 4.72736 64.8366 5.19423 64.8851C5.66111 64.9337 5.97086 65.6327 5.88611 66.4461Z" fill="#FDFFFF"/>
<path d="M10.1216 66.7734C10.0308 67.6442 9.55214 68.3079 9.05245 68.2558C8.55277 68.2037 8.22108 67.4555 8.31183 66.5848C8.40258 65.714 8.88127 65.0503 9.38095 65.1024C9.88064 65.1545 10.2123 65.9027 10.1216 66.7734Z" fill="#FDFFFF"/>
<path d="M14.3037 67.2103C14.2107 68.1026 13.7202 68.783 13.2079 68.7296C12.6957 68.6762 12.3559 67.9095 12.4489 67.0172C12.5419 66.1248 13.0324 65.4444 13.5447 65.4978C14.0569 65.5513 14.3967 66.318 14.3037 67.2103Z" fill="#FDFFFF"/>
<path d="M18.552 67.7439C18.4582 68.6439 17.9634 69.3299 17.4468 69.2761C16.9303 69.2223 16.5877 68.4489 16.6815 67.5489C16.7752 66.6489 17.27 65.9628 17.7866 66.0166C18.3032 66.0704 18.6457 66.8439 18.552 67.7439Z" fill="#FDFFFF"/>
<path d="M23.045 68.2618C22.9512 69.1612 22.4568 69.8467 21.9406 69.7929C21.4244 69.7391 21.0819 68.9666 21.1756 68.0672C21.2694 67.1677 21.7638 66.4822 22.28 66.536C22.7962 66.5899 23.1387 67.3624 23.045 68.2618Z" fill="#FDFFFF"/>
<path d="M27.718 68.6765C27.6218 69.599 27.1148 70.302 26.5855 70.2469C26.0562 70.1917 25.7048 69.3992 25.801 68.4767C25.8972 67.5542 26.4042 66.8512 26.9335 66.9064C27.4628 66.9615 27.8142 67.754 27.718 68.6765Z" fill="#FDFFFF"/>
<path d="M32.5269 69.0941C32.4253 70.0687 31.8894 70.8116 31.3301 70.7533C30.7708 70.695 30.3995 69.8576 30.5011 68.883C30.6028 67.9084 31.1386 67.1655 31.6979 67.2238C32.2573 67.2821 32.6285 68.1195 32.5269 69.0941Z" fill="#FDFFFF"/>
<path d="M33.0657 42.9633C32.9695 43.8858 32.4625 44.5888 31.9332 44.5337C31.4039 44.4785 31.0525 43.686 31.1487 42.7635C31.2449 41.841 31.7519 41.138 32.2812 41.1932C32.8105 41.2483 33.1619 42.0408 33.0657 42.9633Z" fill="#FDFFFF"/>
<path d="M8.61657 27.1052C8.53182 27.9185 8.08482 28.5384 7.61795 28.4899C7.15107 28.4413 6.84132 27.7423 6.92607 26.9289C7.01082 26.1155 7.45782 25.4957 7.9247 25.5442C8.39157 25.5928 8.70132 26.2918 8.61657 27.1052Z" fill="#FDFFFF"/>
<path d="M12.727 27.0244C12.6363 27.8951 12.1576 28.5589 11.6579 28.5067C11.1582 28.4546 10.8265 27.7065 10.9173 26.8357C11.008 25.965 11.4867 25.3012 11.9864 25.3534C12.4861 25.4055 12.8178 26.1536 12.727 27.0244Z" fill="#FDFFFF"/>
<path d="M16.8525 26.7823C16.7595 27.6746 16.269 28.3551 15.7568 28.3016C15.2445 28.2482 14.9048 27.4815 14.9978 26.5892C15.0908 25.6969 15.5813 25.0164 16.0935 25.0699C16.6058 25.1233 16.9455 25.89 16.8525 26.7823Z" fill="#FDFFFF"/>
<path d="M21.1125 26.5322C21.0188 27.4322 20.524 28.1182 20.0074 28.0644C19.4908 28.0106 19.1483 27.2372 19.242 26.3372C19.3358 25.4372 19.8306 24.7511 20.3471 24.8049C20.8637 24.8587 21.2063 25.6322 21.1125 26.5322Z" fill="#FDFFFF"/>
<path d="M25.6563 26.3608C25.5626 27.2602 25.0681 27.9457 24.5519 27.8919C24.0357 27.8381 23.6932 27.0656 23.7869 26.1662C23.8807 25.2667 24.3751 24.5812 24.8913 24.635C25.4075 24.6889 25.7501 25.4614 25.6563 26.3608Z" fill="#FDFFFF"/>
<path d="M30.3215 26.037C30.2253 26.9595 29.7183 27.6624 29.189 27.6073C28.6597 27.5521 28.3083 26.7596 28.4045 25.8371C28.5007 24.9146 29.0077 24.2116 29.537 24.2668C30.0663 24.3219 30.4177 25.1145 30.3215 26.037Z" fill="#FDFFFF"/>
<path d="M34.9348 25.6761C34.8386 26.5986 34.3316 27.3015 33.8023 27.2464C33.273 27.1912 32.9216 26.3987 33.0178 25.4762C33.114 24.5537 33.621 23.8507 34.1503 23.9059C34.6796 23.961 35.031 24.7536 34.9348 25.6761Z" fill="#FDFFFF"/>
</g>
<path d="M31.1308 80.5579C30.6629 80.9149 2.16238 77.2905 1.18851 76.533C0.597696 76.0735 6.73551 24.4437 6.73551 24.4437L36.965 22.6712" stroke="#D63AB1" stroke-width="1.5" stroke-linecap="round" stroke-linejoin="round"/>
<path d="M36.9651 22.6711L31.1309 80.558" stroke="#FFC0F0" stroke-width="1.125" stroke-linecap="round" stroke-linejoin="round"/>
<path d="M13.9562 31.0871C13.9228 32.1084 13.317 32.9173 12.603 32.8941C11.889 32.8708 11.3372 32.0241 11.3706 31.0027C11.404 29.9814 12.0098 29.1726 12.7238 29.1958C13.4378 29.2191 13.9896 30.0658 13.9562 31.0871Z" fill="url(#paint23_radial_2747_2033)"/>
<path d="M28.7558 30.5651C28.7207 31.64 28.0525 32.4903 27.2633 32.4647C26.4741 32.439 25.8629 31.5467 25.8979 30.4717C25.933 29.3968 26.6012 28.5465 27.3904 28.5722C28.1796 28.5978 28.7909 29.4902 28.7558 30.5651Z" fill="url(#paint24_radial_2747_2033)"/>
<path d="M13.1034 32.1791C12.0075 31.6404 12.0319 30.2608 12.1286 27.455C12.2525 23.861 13.8379 15.0532 17.3364 10.029C20.7609 5.11104 25.6515 3.40423 29.288 4.25229C33.2368 5.1731 32.6417 10.8879 30.0744 16.599C28.3192 20.5037 27.7507 23.0077 27.6619 25.8303C27.5627 28.9813 28.5463 30.2655 28.5463 30.2655C28.5463 30.2655 29.0229 31.7812 27.9819 31.7092C27.75 31.7092 26.2012 30.8522 26.127 26.6889C26.0413 21.8827 27.5587 17.544 28.8928 13.571C30.0251 10.1985 29.8455 7.58454 27.7342 7.02579C24.716 6.22704 20.81 7.83541 18.1187 11.8562C14.477 17.2963 13.1906 24.3995 13.0805 27.4633C12.9821 30.204 13.8907 31.0833 13.8907 31.0833C13.8907 31.0833 13.9997 32.66 13.1034 32.1791Z" fill="url(#paint25_linear_2747_2033)"/>
<path d="M12.8108 32.015C12.1461 31.7402 11.5166 29.8389 11.6134 27.0332C11.7373 23.4392 13.3226 14.6313 16.8212 9.6071C20.2457 4.68916 25.1363 2.98235 28.7728 3.83041C32.7216 4.75122 32.1265 10.466 29.5592 16.1771C27.804 20.0818 27.2355 22.5858 27.1466 25.4085C27.0475 28.5594 28.2186 30.207 28.2186 30.207C28.2186 30.207 28.8008 31.7227 27.5488 31.428C27.3169 31.428 25.686 30.4303 25.6118 26.267C25.5261 21.4608 27.0435 17.1221 28.3776 13.1492C29.5099 9.7766 29.3303 7.16266 27.219 6.60391C24.2008 5.80516 20.2948 7.41354 17.6035 11.4343C13.9618 16.8744 12.6754 23.9777 12.5653 27.0414C12.4669 29.7821 13.3405 30.9427 13.3405 30.9427C13.3405 30.9427 13.8593 32.2029 12.8108 32.015Z" fill="url(#paint26_linear_2747_2033)"/>
<defs>
<linearGradient id="paint0_linear_2747_2033" x1="57.601" y1="1.18978" x2="59.075" y2="16.3544" gradientUnits="userSpaceOnUse">
<stop offset="0.36" stop-color="#E29029"/>
<stop offset="0.62" stop-color="#CB7D34"/>
<stop offset="0.88" stop-color="#B36A3F"/>
</linearGradient>
<linearGradient id="paint1_linear_2747_2033" x1="56.9917" y1="0.861652" x2="58.4656" y2="16.0263" gradientUnits="userSpaceOnUse">
<stop offset="0.36" stop-color="#F5BC40"/>
<stop offset="0.62" stop-color="#EC9E3E"/>
<stop offset="0.88" stop-color="#E3813C"/>
</linearGradient>
<linearGradient id="paint2_linear_2747_2033" x1="68.0557" y1="17.7367" x2="71.5462" y2="67.3029" gradientUnits="userSpaceOnUse">
<stop stop-color="#F9DE3C"/>
<stop offset="0.5" stop-color="#F1BC2E"/>
<stop offset="1" stop-color="#E99B20"/>
</linearGradient>
<linearGradient id="paint3_linear_2747_2033" x1="57.5568" y1="45.4866" x2="61.1036" y2="45.666" gradientUnits="userSpaceOnUse">
<stop stop-color="#BF5705"/>
<stop offset="0.46" stop-color="#B44E04"/>
<stop offset="1" stop-color="#A84503"/>
</linearGradient>
<linearGradient id="paint4_linear_2747_2033" x1="21.5558" y1="42.4865" x2="56.0389" y2="45.4052" gradientUnits="userSpaceOnUse">
<stop stop-color="#FAC92A"/>
<stop offset="0.47" stop-color="#F9CD2F"/>
<stop offset="0.95" stop-color="#F8D034"/>
</linearGradient>
<linearGradient id="paint5_linear_2747_2033" x1="29.8981" y1="18.8851" x2="36.0522" y2="20.3969" gradientUnits="userSpaceOnUse">
<stop offset="0.26" stop-color="#723C24"/>
<stop offset="0.35" stop-color="#B57A35" stop-opacity="0.5"/>
<stop offset="0.45" stop-color="#F8B845" stop-opacity="0"/>
</linearGradient>
<linearGradient id="paint6_linear_2747_2033" x1="48.6244" y1="18.2289" x2="53.7878" y2="18.5199" gradientUnits="userSpaceOnUse">
<stop offset="0.21" stop-color="#723C24"/>
<stop offset="0.33" stop-color="#B57A35" stop-opacity="0.5"/>
<stop offset="0.45" stop-color="#F8B845" stop-opacity="0"/>
</linearGradient>
<radialGradient id="paint7_radial_2747_2033" cx="0" cy="0" r="1" gradientUnits="userSpaceOnUse" gradientTransform="translate(45.6964 20.5256) scale(11.0664 11.0664)">
<stop offset="0.62" stop-color="white" stop-opacity="0"/>
<stop offset="0.72" stop-color="white" stop-opacity="0.5"/>
<stop offset="0.82" stop-color="white"/>
<stop offset="0.91" stop-color="white" stop-opacity="0.5"/>
<stop offset="1" stop-color="white" stop-opacity="0"/>
</radialGradient>
<radialGradient id="paint8_radial_2747_2033" cx="0" cy="0" r="1" gradientUnits="userSpaceOnUse" gradientTransform="translate(45.6964 20.5256) scale(11.0664 11.0664)">
<stop offset="0.63" stop-color="#FAC92A"/>
<stop offset="0.81" stop-color="#D79815"/>
<stop offset="1" stop-color="#B46700"/>
</radialGradient>
<radialGradient id="paint9_radial_2747_2033" cx="0" cy="0" r="1" gradientUnits="userSpaceOnUse" gradientTransform="translate(26.1403 38.1971) scale(16.7956 16.7956)">
<stop stop-color="#D37D42"/>
<stop offset="0.5" stop-color="#B05F32"/>
<stop offset="1" stop-color="#8E4123"/>
</radialGradient>
<radialGradient id="paint10_radial_2747_2033" cx="0" cy="0" r="1" gradientUnits="userSpaceOnUse" gradientTransform="translate(108.778 22.1838) scale(69.177 69.177)">
<stop stop-color="#D37D42"/>
<stop offset="0.5" stop-color="#B05F32"/>
<stop offset="1" stop-color="#8E4123"/>
</radialGradient>
<linearGradient id="paint11_linear_2747_2033" x1="40.2819" y1="1.2836" x2="39.578" y2="23.0529" gradientUnits="userSpaceOnUse">
<stop offset="0.26" stop-color="#E0A020"/>
<stop offset="0.58" stop-color="#DC8913"/>
<stop offset="0.91" stop-color="#D97207"/>
</linearGradient>
<linearGradient id="paint12_linear_2747_2033" x1="39.696" y1="0.861725" x2="38.9921" y2="22.631" gradientUnits="userSpaceOnUse">
<stop offset="0.26" stop-color="#FFD162"/>
<stop offset="0.58" stop-color="#FFBF4A"/>
<stop offset="0.91" stop-color="#FFAE31"/>
</linearGradient>
<linearGradient id="paint13_linear_2747_2033" x1="36.0873" y1="5.84264" x2="39.3392" y2="27.1764" gradientUnits="userSpaceOnUse">
<stop offset="0.35" stop-color="#BD5BAB"/>
<stop offset="0.67" stop-color="#B34696"/>
<stop offset="1" stop-color="#A93081"/>
</linearGradient>
<linearGradient id="paint14_linear_2747_2033" x1="35.3608" y1="5.95983" x2="38.6126" y2="27.2936" gradientUnits="userSpaceOnUse">
<stop offset="0.29" stop-color="#E771C6"/>
<stop offset="0.64" stop-color="#D85DB2"/>
<stop offset="1" stop-color="#C8489E"/>
</linearGradient>
<linearGradient id="paint15_linear_2747_2033" x1="47.3623" y1="24.7099" x2="49.4612" y2="60.4706" gradientUnits="userSpaceOnUse">
<stop stop-color="#FD8DE6"/>
<stop offset="0.49" stop-color="#FB75D4"/>
<stop offset="0.99" stop-color="#F95DC2"/>
</linearGradient>
<linearGradient id="paint16_linear_2747_2033" x1="41.5498" y1="51.3349" x2="56.6447" y2="49.8658" gradientUnits="userSpaceOnUse">
<stop offset="0.24" stop-color="#DE59B3"/>
<stop offset="0.35" stop-color="#EB61BE" stop-opacity="0.5"/>
<stop offset="0.46" stop-color="#F769C9" stop-opacity="0"/>
</linearGradient>
<linearGradient id="paint17_linear_2747_2033" x1="42.3026" y1="50.7723" x2="35.9021" y2="51.2645" gradientUnits="userSpaceOnUse">
<stop stop-color="#9A124E"/>
<stop offset="0.46" stop-color="#B1185C"/>
<stop offset="1" stop-color="#C81F69"/>
</linearGradient>
<linearGradient id="paint18_linear_2747_2033" x1="37.4256" y1="69.8972" x2="43.8292" y2="77.5502" gradientUnits="userSpaceOnUse">
<stop offset="0.03" stop-color="#6C1839"/>
<stop offset="0.38" stop-color="#B23982" stop-opacity="0.52"/>
<stop offset="0.73" stop-color="#F85ACB" stop-opacity="0.04"/>
</linearGradient>
<linearGradient id="paint19_linear_2747_2033" x1="45.3006" y1="79.6472" x2="45.1007" y2="76.2401" gradientUnits="userSpaceOnUse">
<stop offset="0.26" stop-color="#DE62B4"/>
<stop offset="0.58" stop-color="#CF51A4"/>
<stop offset="0.91" stop-color="#BF4095"/>
</linearGradient>
<linearGradient id="paint20_linear_2747_2033" x1="22.0498" y1="25.0847" x2="15.9028" y2="78.6942" gradientUnits="userSpaceOnUse">
<stop offset="0.12" stop-color="#FC5BCC"/>
<stop offset="0.54" stop-color="#FC5BCC"/>
<stop offset="0.96" stop-color="#FC5BCC"/>
<stop offset="0.99" stop-color="#EE3FB7"/>
<stop offset="1" stop-color="#E024A2"/>
</linearGradient>
<linearGradient id="paint21_linear_2747_2033" x1="12.7231" y1="27.2409" x2="16.1883" y2="27.8325" gradientUnits="userSpaceOnUse">
<stop offset="0.03" stop-color="#6C1839"/>
<stop offset="0.38" stop-color="#B23982" stop-opacity="0.52"/>
<stop offset="0.73" stop-color="#F85ACB" stop-opacity="0.04"/>
</linearGradient>
<linearGradient id="paint22_linear_2747_2033" x1="27.4192" y1="26.6784" x2="30.305" y2="26.9836" gradientUnits="userSpaceOnUse">
<stop offset="0.03" stop-color="#6C1839"/>
<stop offset="0.38" stop-color="#B23982" stop-opacity="0.52"/>
<stop offset="0.73" stop-color="#F85ACB" stop-opacity="0.04"/>
</linearGradient>
<radialGradient id="paint23_radial_2747_2033" cx="0" cy="0" r="1" gradientUnits="userSpaceOnUse" gradientTransform="translate(-12.1164 59.2012) scale(56.4717 56.4717)">
<stop stop-color="#A02354"/>
<stop offset="0.5" stop-color="#8F1342"/>
<stop offset="1" stop-color="#7D0430"/>
</radialGradient>
<radialGradient id="paint24_radial_2747_2033" cx="0" cy="0" r="1" gradientUnits="userSpaceOnUse" gradientTransform="translate(16.8486 38.6327) scale(25.0659 25.0659)">
<stop stop-color="#AD1751"/>
<stop offset="0.5" stop-color="#880D2A"/>
<stop offset="1" stop-color="#620404"/>
</radialGradient>
<linearGradient id="paint25_linear_2747_2033" x1="25.5195" y1="4.41297" x2="19.4803" y2="31.9181" gradientUnits="userSpaceOnUse">
<stop offset="0.26" stop-color="#DE62B4"/>
<stop offset="0.58" stop-color="#CF51A4"/>
<stop offset="0.91" stop-color="#BF4095"/>
</linearGradient>
<linearGradient id="paint26_linear_2747_2033" x1="25.0043" y1="3.9911" x2="18.9651" y2="31.4962" gradientUnits="userSpaceOnUse">
<stop offset="0.26" stop-color="#FF9CDD"/>
<stop offset="0.58" stop-color="#F580CE"/>
<stop offset="0.91" stop-color="#EB64BE"/>
</linearGradient>
</defs>
</svg>
